<svg width="50" height="50" viewBox="0 0 50 50" fill="none" xmlns="http://www.w3.org/2000/svg">
<path d="M20.7951 6.23877H31.1927M17.2757 21.8591L19.207 18.7919C20.9006 16.1021 21.9893 13.0762 22.3975 9.92391L22.8746 6.23877H29.1132L29.5446 9.69017C29.9453 12.8961 31.04 15.9761 32.7523 18.7158L34.7195 21.8634C35.1327 22.5244 35.3517 23.2882 35.3517 24.0676V39.5109C35.3517 41.8079 33.4896 43.67 31.1927 43.67H20.7951C18.4982 43.67 16.6361 41.8079 16.6361 39.5109V24.0752C16.6361 23.291 16.8578 22.5227 17.2757 21.8591ZM16.6361 29.1134L17.9426 29.5489C21.0315 30.5785 24.4289 30.0272 27.0337 28.0736L27.4727 27.7443C29.6259 26.1294 32.4662 25.7944 34.9225 26.8358L35.3517 27.0339V39.5109C35.3517 41.8079 33.4896 43.67 31.1927 43.67H20.7951C18.4982 43.67 16.6361 41.8079 16.6361 39.5109V29.1134Z" stroke="#626348" stroke-width="1.94954" stroke-linecap="round"/>
</svg>
